<svg xmlns="http://www.w3.org/2000/svg" width="1024" height="1024" viewBox="0 0 1024 1024">
<path d="M 798 685 L 798 688 L 812 688 L 813 689 L 812 690 L 812 691 L 804 699 L 804 700 L 798 706 L 798 710 L 820 710 L 819 709 L 819 708 L 820 707 L 819 706 L 818 707 L 804 707 L 803 706 L 812 697 L 812 696 L 819 689 L 819 685 Z" fill="#FFFFFF"/>
<path d="M 865 684 L 864 685 L 863 685 L 859 689 L 858 688 L 858 685 L 854 685 L 854 710 L 858 710 L 858 695 L 859 694 L 859 693 L 863 689 L 865 689 L 866 688 L 869 688 L 868 687 L 868 686 L 869 685 L 868 684 Z" fill="#FFFFFF"/>
<path d="M 833 684 L 832 685 L 831 685 L 829 687 L 828 687 L 827 688 L 827 689 L 826 690 L 826 691 L 825 692 L 825 694 L 824 695 L 824 701 L 825 702 L 825 704 L 826 705 L 826 706 L 829 709 L 830 709 L 831 710 L 832 710 L 833 711 L 839 711 L 840 710 L 842 710 L 843 709 L 844 709 L 847 706 L 847 704 L 846 704 L 845 703 L 844 703 L 844 704 L 842 706 L 841 706 L 840 707 L 833 707 L 829 703 L 829 699 L 830 698 L 848 698 L 848 691 L 847 690 L 847 689 L 844 686 L 843 686 L 842 685 L 840 685 L 839 684 Z" fill="#FFFFFF"/>
<path d="M 777 684 L 776 685 L 774 685 L 771 688 L 771 689 L 770 690 L 770 691 L 772 691 L 773 692 L 774 692 L 774 691 L 777 688 L 778 688 L 779 687 L 782 687 L 783 688 L 784 688 L 787 691 L 787 693 L 786 694 L 785 694 L 784 695 L 781 695 L 780 696 L 776 696 L 775 697 L 773 697 L 769 701 L 769 706 L 770 707 L 770 708 L 771 709 L 772 709 L 773 710 L 774 710 L 775 711 L 780 711 L 781 710 L 782 710 L 783 709 L 784 709 L 786 707 L 787 708 L 787 710 L 791 710 L 791 691 L 790 690 L 790 688 L 787 685 L 786 685 L 785 684 Z" fill="#FFFFFF"/>
<path d="M 720 684 L 719 685 L 717 685 L 712 690 L 712 691 L 711 692 L 711 695 L 710 696 L 710 700 L 711 701 L 711 704 L 712 705 L 712 706 L 715 709 L 716 709 L 717 710 L 719 710 L 720 711 L 725 711 L 726 710 L 728 710 L 729 709 L 730 709 L 734 705 L 734 704 L 732 704 L 731 703 L 730 703 L 730 704 L 728 706 L 727 706 L 726 707 L 724 707 L 723 708 L 722 707 L 719 707 L 715 703 L 715 699 L 716 698 L 734 698 L 735 697 L 734 696 L 734 691 L 733 690 L 733 689 L 729 685 L 727 685 L 726 684 Z" fill="#FFFFFF"/>
<path d="M 691 684 L 690 685 L 689 685 L 685 689 L 684 688 L 684 685 L 680 685 L 680 710 L 684 710 L 684 695 L 685 694 L 685 693 L 689 689 L 691 689 L 692 688 L 694 688 L 694 684 Z" fill="#FFFFFF"/>
<path d="M 659 684 L 658 685 L 656 685 L 651 690 L 651 692 L 650 693 L 650 703 L 651 704 L 651 705 L 652 706 L 652 707 L 654 709 L 655 709 L 656 710 L 658 710 L 659 711 L 665 711 L 666 710 L 667 710 L 668 709 L 669 709 L 673 705 L 673 704 L 672 704 L 671 703 L 670 703 L 666 707 L 663 707 L 662 708 L 661 707 L 658 707 L 655 704 L 655 703 L 654 702 L 654 699 L 655 698 L 674 698 L 674 694 L 673 693 L 673 691 L 672 690 L 672 689 L 668 685 L 666 685 L 665 684 Z" fill="#FFFFFF"/>
<path d="M 601 684 L 600 685 L 599 685 L 598 686 L 597 686 L 596 687 L 595 686 L 595 685 L 591 685 L 591 710 L 595 710 L 595 692 L 599 688 L 605 688 L 608 691 L 608 710 L 613 710 L 613 693 L 612 692 L 612 688 L 609 685 L 608 685 L 607 684 Z" fill="#FFFFFF"/>
<path d="M 570 684 L 569 685 L 568 685 L 567 686 L 566 686 L 562 690 L 562 692 L 561 693 L 561 703 L 562 704 L 562 705 L 563 706 L 563 707 L 564 708 L 565 708 L 567 710 L 569 710 L 570 711 L 576 711 L 577 710 L 578 710 L 579 709 L 580 709 L 584 705 L 584 704 L 583 704 L 582 703 L 581 703 L 578 706 L 577 706 L 576 707 L 569 707 L 566 704 L 566 703 L 565 702 L 565 699 L 566 698 L 585 698 L 585 694 L 584 693 L 584 690 L 582 688 L 582 687 L 581 687 L 579 685 L 577 685 L 576 684 Z" fill="#FFFFFF"/>
<path d="M 554 684 L 552 686 L 551 686 L 550 687 L 550 688 L 549 689 L 548 688 L 548 685 L 544 685 L 544 710 L 548 710 L 548 694 L 549 693 L 549 692 L 551 690 L 552 690 L 553 689 L 554 689 L 555 688 L 558 688 L 558 684 Z" fill="#FFFFFF"/>
<path d="M 524 684 L 523 685 L 521 685 L 518 688 L 517 687 L 517 685 L 513 685 L 513 720 L 517 720 L 517 708 L 518 707 L 520 709 L 521 709 L 522 710 L 530 710 L 531 709 L 532 709 L 536 705 L 536 704 L 537 703 L 537 700 L 538 699 L 538 694 L 537 693 L 537 691 L 536 690 L 536 689 L 532 685 L 530 685 L 529 684 Z" fill="#FFFFFF"/>
<path d="M 491 684 L 490 685 L 489 685 L 485 689 L 485 691 L 487 691 L 488 692 L 489 691 L 489 690 L 491 688 L 493 688 L 494 687 L 497 687 L 498 688 L 499 688 L 501 690 L 501 693 L 500 694 L 499 694 L 498 695 L 495 695 L 494 696 L 491 696 L 490 697 L 488 697 L 487 698 L 486 698 L 484 700 L 484 707 L 487 710 L 489 710 L 490 711 L 495 711 L 496 710 L 497 710 L 498 709 L 499 709 L 501 707 L 502 708 L 502 710 L 506 710 L 506 709 L 505 708 L 505 689 L 504 688 L 504 687 L 503 686 L 502 686 L 501 685 L 500 685 L 499 684 Z" fill="#FFFFFF"/>
<path d="M 452 684 L 451 685 L 449 685 L 444 690 L 444 691 L 443 692 L 443 695 L 442 696 L 442 700 L 443 701 L 443 704 L 444 705 L 444 706 L 447 709 L 448 709 L 449 710 L 451 710 L 452 711 L 457 711 L 458 710 L 460 710 L 461 709 L 462 709 L 466 705 L 466 704 L 465 704 L 464 703 L 462 703 L 462 704 L 460 706 L 459 706 L 458 707 L 451 707 L 448 704 L 448 703 L 447 702 L 447 699 L 448 698 L 466 698 L 467 697 L 466 696 L 466 691 L 465 690 L 465 689 L 461 685 L 459 685 L 458 684 Z" fill="#FFFFFF"/>
<path d="M 436 684 L 435 685 L 434 685 L 430 689 L 429 688 L 429 687 L 430 686 L 430 685 L 425 685 L 425 710 L 430 710 L 429 709 L 429 696 L 430 695 L 430 693 L 434 689 L 435 689 L 436 688 L 440 688 L 440 684 Z" fill="#FFFFFF"/>
<path d="M 388 684 L 387 685 L 386 685 L 384 687 L 383 687 L 382 686 L 383 685 L 378 685 L 378 710 L 383 710 L 382 709 L 382 708 L 383 707 L 382 706 L 383 705 L 383 703 L 382 702 L 382 693 L 383 692 L 383 691 L 385 689 L 386 689 L 387 688 L 393 688 L 394 689 L 394 690 L 395 691 L 395 693 L 396 694 L 396 710 L 400 710 L 400 690 L 399 689 L 399 688 L 398 687 L 398 686 L 397 686 L 396 685 L 395 685 L 394 684 Z" fill="#FFFFFF"/>
<path d="M 357 684 L 356 685 L 355 685 L 354 686 L 353 686 L 350 689 L 350 690 L 349 691 L 349 692 L 348 693 L 348 703 L 349 704 L 349 705 L 354 710 L 356 710 L 357 711 L 363 711 L 364 710 L 366 710 L 367 709 L 368 709 L 370 707 L 370 706 L 371 705 L 371 704 L 370 704 L 369 703 L 368 703 L 364 707 L 357 707 L 356 706 L 355 706 L 354 705 L 354 704 L 353 703 L 353 702 L 352 701 L 352 699 L 353 698 L 372 698 L 372 693 L 371 692 L 371 690 L 370 689 L 370 688 L 368 686 L 367 686 L 366 685 L 365 685 L 364 684 Z" fill="#FFFFFF"/>
<path d="M 316 684 L 315 685 L 314 685 L 313 686 L 312 686 L 308 690 L 308 692 L 307 693 L 307 696 L 306 697 L 306 699 L 307 700 L 307 703 L 308 704 L 308 705 L 309 706 L 309 707 L 311 709 L 312 709 L 313 710 L 315 710 L 316 711 L 322 711 L 323 710 L 325 710 L 330 705 L 330 704 L 329 704 L 328 703 L 327 703 L 323 707 L 315 707 L 312 704 L 312 703 L 311 702 L 311 699 L 312 698 L 331 698 L 331 694 L 330 693 L 330 691 L 329 690 L 329 689 L 325 685 L 323 685 L 322 684 Z" fill="#FFFFFF"/>
<path d="M 272 684 L 271 685 L 269 685 L 266 688 L 265 687 L 265 685 L 261 685 L 261 710 L 265 710 L 265 692 L 268 689 L 269 689 L 270 688 L 275 688 L 278 691 L 278 694 L 279 695 L 279 710 L 283 710 L 283 690 L 282 689 L 282 688 L 279 685 L 278 685 L 277 684 Z" fill="#FFFFFF"/>
<path d="M 239 684 L 238 685 L 236 685 L 231 690 L 231 691 L 230 692 L 230 695 L 229 696 L 229 698 L 230 699 L 230 703 L 231 704 L 231 705 L 235 709 L 236 709 L 237 710 L 239 710 L 240 711 L 245 711 L 246 710 L 248 710 L 250 708 L 251 708 L 253 706 L 253 705 L 254 704 L 254 702 L 255 701 L 255 694 L 254 693 L 254 691 L 253 690 L 253 689 L 250 686 L 249 686 L 248 685 L 246 685 L 245 684 Z" fill="#FFFFFF"/>
<path d="M 201 684 L 200 685 L 200 720 L 205 720 L 205 709 L 204 708 L 205 707 L 206 707 L 209 710 L 218 710 L 220 708 L 221 708 L 223 706 L 223 705 L 224 704 L 224 702 L 225 701 L 225 693 L 224 692 L 224 690 L 223 689 L 223 688 L 221 686 L 220 686 L 219 685 L 217 685 L 216 684 L 212 684 L 211 685 L 209 685 L 208 686 L 207 686 L 205 688 L 204 687 L 204 686 L 205 685 L 202 685 Z" fill="#FFFFFF"/>
<path d="M 409 676 L 409 682 L 408 683 L 408 684 L 407 685 L 404 685 L 405 686 L 405 688 L 407 688 L 408 689 L 408 705 L 409 706 L 409 708 L 411 710 L 412 710 L 413 711 L 417 711 L 418 710 L 419 710 L 419 706 L 418 706 L 417 707 L 415 707 L 413 705 L 413 689 L 414 688 L 419 688 L 419 685 L 414 685 L 413 684 L 413 677 L 412 676 L 411 677 L 410 677 Z" fill="#FFFFFF"/>
<path d="M 293 676 L 292 677 L 292 684 L 291 685 L 288 685 L 288 688 L 291 688 L 292 689 L 292 707 L 293 708 L 293 709 L 294 710 L 295 710 L 296 711 L 301 711 L 302 710 L 303 710 L 303 706 L 302 706 L 301 707 L 299 707 L 296 704 L 296 689 L 297 688 L 303 688 L 303 685 L 297 685 L 296 684 L 296 676 L 295 677 L 294 677 Z" fill="#FFFFFF"/>
<path d="M 639 674 L 639 687 L 638 688 L 635 685 L 633 685 L 632 684 L 628 684 L 627 685 L 625 685 L 624 686 L 623 686 L 621 688 L 621 689 L 620 690 L 620 691 L 619 692 L 619 697 L 618 698 L 619 699 L 619 703 L 620 704 L 620 705 L 624 709 L 625 709 L 626 710 L 629 710 L 630 711 L 631 711 L 632 710 L 634 710 L 635 709 L 636 709 L 638 707 L 639 708 L 639 710 L 643 710 L 643 674 Z" fill="#FFFFFF"/>
<path d="M 164 674 L 163 675 L 163 677 L 162 678 L 162 680 L 161 681 L 161 682 L 160 683 L 160 685 L 159 686 L 159 688 L 158 689 L 158 691 L 157 692 L 157 694 L 156 695 L 156 696 L 155 697 L 155 699 L 154 700 L 154 702 L 153 703 L 153 705 L 152 706 L 152 707 L 151 708 L 151 710 L 155 710 L 156 709 L 156 707 L 157 706 L 157 704 L 158 703 L 158 702 L 159 701 L 173 701 L 175 703 L 175 705 L 176 706 L 176 708 L 177 709 L 177 710 L 182 710 L 182 709 L 181 708 L 181 706 L 180 705 L 180 703 L 179 702 L 179 701 L 178 700 L 178 698 L 177 697 L 177 695 L 176 694 L 176 693 L 175 692 L 175 690 L 174 689 L 174 687 L 173 686 L 173 684 L 172 683 L 172 682 L 171 681 L 171 679 L 170 678 L 170 676 L 169 675 L 169 674 Z" fill="#FFFFFF"/>
<path d="M 760 673 L 759 674 L 758 674 L 757 675 L 757 676 L 756 677 L 756 684 L 755 685 L 751 685 L 751 688 L 755 688 L 756 689 L 756 710 L 760 710 L 760 689 L 761 688 L 767 688 L 767 685 L 761 685 L 760 684 L 760 679 L 763 676 L 766 676 L 766 673 Z" fill="#FFFFFF"/>
<path d="M 587 559 L 587 635 L 607 635 L 607 559 Z" fill="#FFFFFF"/>
<path d="M 312 559 L 312 635 L 333 635 L 333 559 Z" fill="#FFFFFF"/>
<path d="M 843 557 L 842 558 L 838 558 L 837 559 L 836 559 L 835 560 L 833 560 L 832 561 L 831 561 L 829 563 L 828 563 L 826 565 L 825 565 L 820 570 L 820 571 L 818 573 L 818 574 L 816 576 L 816 577 L 815 578 L 815 579 L 814 580 L 814 582 L 813 583 L 813 586 L 812 587 L 812 606 L 813 607 L 813 611 L 814 612 L 814 613 L 815 614 L 815 616 L 816 617 L 816 618 L 818 620 L 818 621 L 822 625 L 822 626 L 823 626 L 827 630 L 828 630 L 830 632 L 831 632 L 832 633 L 834 633 L 835 634 L 837 634 L 838 635 L 841 635 L 842 636 L 863 636 L 864 635 L 867 635 L 868 634 L 870 634 L 871 633 L 872 633 L 873 632 L 874 632 L 875 631 L 876 631 L 878 629 L 879 629 L 883 625 L 884 625 L 887 622 L 886 621 L 885 621 L 883 619 L 882 619 L 879 616 L 878 616 L 875 613 L 874 613 L 873 612 L 867 618 L 866 618 L 865 619 L 864 619 L 863 620 L 860 620 L 859 621 L 846 621 L 845 620 L 843 620 L 842 619 L 841 619 L 840 618 L 839 618 L 834 613 L 834 612 L 833 611 L 833 610 L 832 609 L 832 605 L 831 604 L 831 603 L 832 602 L 888 602 L 888 588 L 887 587 L 887 583 L 886 582 L 886 580 L 885 579 L 885 577 L 884 576 L 884 575 L 882 573 L 882 572 L 881 571 L 881 570 L 875 564 L 874 564 L 872 562 L 871 562 L 870 561 L 869 561 L 868 560 L 867 560 L 866 559 L 864 559 L 863 558 L 860 558 L 859 557 Z" fill="#FFFFFF"/>
<path d="M 747 557 L 746 558 L 743 558 L 742 559 L 740 559 L 739 560 L 738 560 L 737 561 L 736 561 L 735 562 L 734 562 L 731 565 L 730 565 L 727 568 L 727 569 L 724 572 L 724 573 L 722 575 L 722 576 L 721 577 L 721 578 L 720 579 L 720 581 L 719 582 L 719 585 L 718 586 L 718 593 L 717 594 L 717 598 L 718 599 L 718 604 L 719 605 L 719 608 L 720 609 L 720 611 L 721 612 L 721 613 L 722 614 L 722 615 L 723 616 L 723 617 L 726 620 L 726 621 L 731 626 L 732 626 L 734 628 L 735 628 L 736 629 L 737 629 L 738 630 L 739 630 L 740 631 L 742 631 L 743 632 L 749 632 L 750 633 L 755 633 L 756 632 L 762 632 L 763 631 L 765 631 L 766 630 L 768 630 L 769 629 L 770 629 L 772 627 L 773 627 L 778 622 L 779 623 L 779 624 L 778 625 L 778 627 L 779 628 L 778 629 L 778 630 L 779 631 L 778 632 L 778 637 L 777 638 L 777 639 L 776 640 L 776 641 L 772 645 L 771 645 L 770 646 L 769 646 L 768 647 L 765 647 L 764 648 L 748 648 L 747 647 L 745 647 L 744 646 L 743 646 L 740 643 L 739 643 L 737 641 L 737 640 L 736 640 L 725 651 L 725 652 L 728 655 L 729 655 L 731 657 L 732 657 L 734 659 L 735 659 L 736 660 L 738 660 L 739 661 L 740 661 L 741 662 L 744 662 L 745 663 L 749 663 L 750 664 L 766 664 L 767 663 L 771 663 L 772 662 L 775 662 L 776 661 L 777 661 L 778 660 L 780 660 L 781 659 L 782 659 L 784 657 L 785 657 L 793 649 L 793 648 L 794 647 L 794 646 L 795 645 L 795 644 L 796 643 L 796 642 L 797 641 L 797 638 L 798 637 L 798 559 L 778 559 L 778 566 L 777 567 L 776 566 L 776 565 L 775 564 L 774 564 L 771 561 L 770 561 L 769 560 L 768 560 L 767 559 L 766 559 L 765 558 L 762 558 L 761 557 Z" fill="#FFFFFF"/>
<path d="M 565 557 L 564 558 L 562 558 L 561 559 L 559 559 L 558 560 L 557 560 L 556 561 L 555 561 L 548 568 L 547 567 L 547 559 L 526 559 L 526 635 L 546 635 L 546 592 L 547 591 L 547 589 L 548 588 L 548 587 L 549 586 L 549 585 L 553 581 L 554 581 L 556 579 L 557 579 L 558 578 L 561 578 L 562 577 L 565 577 L 566 576 L 575 576 L 575 558 L 573 558 L 572 557 Z" fill="#FFFFFF"/>
<path d="M 429 533 L 429 635 L 483 635 L 484 634 L 488 634 L 489 633 L 491 633 L 492 632 L 494 632 L 495 631 L 496 631 L 497 630 L 498 630 L 500 628 L 501 628 L 508 621 L 508 620 L 509 619 L 509 618 L 510 617 L 510 615 L 511 614 L 511 609 L 512 608 L 512 605 L 511 604 L 511 597 L 510 596 L 510 594 L 509 593 L 509 592 L 507 590 L 507 589 L 502 584 L 501 584 L 500 583 L 499 583 L 498 582 L 497 582 L 496 581 L 498 579 L 499 579 L 504 574 L 504 573 L 506 571 L 506 570 L 507 569 L 507 567 L 508 566 L 508 552 L 507 551 L 507 549 L 506 548 L 506 547 L 505 546 L 505 545 L 498 538 L 497 538 L 496 537 L 495 537 L 494 536 L 493 536 L 492 535 L 490 535 L 489 534 L 485 534 L 484 533 Z" fill="#FFFFFF"/>
<path d="M 162 531 L 161 532 L 158 532 L 157 533 L 154 533 L 153 534 L 152 534 L 151 535 L 150 535 L 149 536 L 148 536 L 147 537 L 146 537 L 139 544 L 139 545 L 137 547 L 137 548 L 136 549 L 136 551 L 135 552 L 135 554 L 134 555 L 134 570 L 135 571 L 135 573 L 136 574 L 136 575 L 137 576 L 137 577 L 143 583 L 144 583 L 146 585 L 147 585 L 148 586 L 150 586 L 151 587 L 153 587 L 154 588 L 156 588 L 157 589 L 159 589 L 160 590 L 163 590 L 164 591 L 166 591 L 167 592 L 170 592 L 171 593 L 173 593 L 174 594 L 176 594 L 177 595 L 178 595 L 179 596 L 180 596 L 181 597 L 182 597 L 183 598 L 184 598 L 187 601 L 187 602 L 188 603 L 188 604 L 189 605 L 189 609 L 188 610 L 188 611 L 187 612 L 187 613 L 183 617 L 182 617 L 181 618 L 178 618 L 177 619 L 167 619 L 166 618 L 163 618 L 162 617 L 161 617 L 160 616 L 159 616 L 154 611 L 154 610 L 153 609 L 153 608 L 152 607 L 152 605 L 141 605 L 140 606 L 130 606 L 130 609 L 131 610 L 131 613 L 132 614 L 132 615 L 133 616 L 133 618 L 134 619 L 134 620 L 136 622 L 136 623 L 143 630 L 144 630 L 145 631 L 146 631 L 148 633 L 150 633 L 151 634 L 152 634 L 153 635 L 156 635 L 157 636 L 161 636 L 162 637 L 180 637 L 181 636 L 185 636 L 186 635 L 188 635 L 189 634 L 190 634 L 191 633 L 192 633 L 193 632 L 194 632 L 195 631 L 196 631 L 198 629 L 199 629 L 205 623 L 205 622 L 207 620 L 207 619 L 208 618 L 208 617 L 209 616 L 209 615 L 210 614 L 210 612 L 211 611 L 211 599 L 210 598 L 210 595 L 209 594 L 209 593 L 208 592 L 208 591 L 207 590 L 207 589 L 202 584 L 201 584 L 199 582 L 198 582 L 197 581 L 196 581 L 195 580 L 193 580 L 192 579 L 190 579 L 189 578 L 188 578 L 187 577 L 185 577 L 184 576 L 181 576 L 180 575 L 178 575 L 177 574 L 175 574 L 174 573 L 172 573 L 171 572 L 169 572 L 168 571 L 166 571 L 165 570 L 163 570 L 161 568 L 160 568 L 156 564 L 156 556 L 161 551 L 162 551 L 163 550 L 165 550 L 166 549 L 176 549 L 177 550 L 179 550 L 180 551 L 181 551 L 185 555 L 185 556 L 186 557 L 186 558 L 187 559 L 187 561 L 197 561 L 198 560 L 208 560 L 208 558 L 207 557 L 207 552 L 206 551 L 206 549 L 205 548 L 205 547 L 204 546 L 204 545 L 202 543 L 202 542 L 199 539 L 198 539 L 195 536 L 194 536 L 193 535 L 192 535 L 191 534 L 189 534 L 188 533 L 185 533 L 184 532 L 180 532 L 179 531 Z" fill="#FFFFFF"/>
<path d="M 684 527 L 684 566 L 683 567 L 679 563 L 678 563 L 676 561 L 675 561 L 674 560 L 673 560 L 672 559 L 670 559 L 669 558 L 666 558 L 665 557 L 652 557 L 651 558 L 648 558 L 647 559 L 645 559 L 644 560 L 643 560 L 642 561 L 641 561 L 640 562 L 639 562 L 637 564 L 636 564 L 630 570 L 630 571 L 628 573 L 628 574 L 626 576 L 626 577 L 625 578 L 625 580 L 624 581 L 624 583 L 623 584 L 623 587 L 622 588 L 622 606 L 623 607 L 623 610 L 624 611 L 624 613 L 625 614 L 625 616 L 626 617 L 626 618 L 628 620 L 628 621 L 630 623 L 630 624 L 634 628 L 635 628 L 638 631 L 639 631 L 640 632 L 641 632 L 642 633 L 643 633 L 644 634 L 645 634 L 646 635 L 649 635 L 650 636 L 667 636 L 668 635 L 670 635 L 671 634 L 672 634 L 673 633 L 674 633 L 675 632 L 676 632 L 683 625 L 684 626 L 684 635 L 704 635 L 704 527 Z" fill="#FFFFFF"/>
<path d="M 389 527 L 389 635 L 409 635 L 409 527 Z" fill="#FFFFFF"/>
<path d="M 350 527 L 350 635 L 371 635 L 371 632 L 370 631 L 370 617 L 371 616 L 370 615 L 370 609 L 371 608 L 370 607 L 370 600 L 371 599 L 370 598 L 370 596 L 371 595 L 371 594 L 370 593 L 371 592 L 370 591 L 370 582 L 371 581 L 371 580 L 370 579 L 370 574 L 371 573 L 370 572 L 371 571 L 370 570 L 370 565 L 371 564 L 371 563 L 370 562 L 371 561 L 371 560 L 370 559 L 370 558 L 371 557 L 370 556 L 370 552 L 371 551 L 370 550 L 371 549 L 371 544 L 370 543 L 371 542 L 371 541 L 370 540 L 371 539 L 371 537 L 370 536 L 370 534 L 371 533 L 371 531 L 370 530 L 370 529 L 371 528 L 370 527 Z" fill="#FFFFFF"/>
<path d="M 223 527 L 222 528 L 222 548 L 223 549 L 222 550 L 222 566 L 223 567 L 222 568 L 222 632 L 223 633 L 222 634 L 222 635 L 243 635 L 243 611 L 249 605 L 250 605 L 252 603 L 256 607 L 256 608 L 260 612 L 260 613 L 264 617 L 264 618 L 267 621 L 267 622 L 271 626 L 271 627 L 274 630 L 274 631 L 277 634 L 277 635 L 302 635 L 302 634 L 298 630 L 298 629 L 294 625 L 294 624 L 290 620 L 290 619 L 286 615 L 286 614 L 282 610 L 282 609 L 278 605 L 278 604 L 274 600 L 274 599 L 270 595 L 270 594 L 267 591 L 267 590 L 298 559 L 273 559 L 250 582 L 250 583 L 244 589 L 243 588 L 243 527 Z" fill="#FFFFFF"/>
<path d="M 595 525 L 594 526 L 592 526 L 591 527 L 590 527 L 588 529 L 587 529 L 587 530 L 585 532 L 585 535 L 584 536 L 584 538 L 585 539 L 585 541 L 586 542 L 586 543 L 591 548 L 593 548 L 594 549 L 599 549 L 600 548 L 602 548 L 603 547 L 604 547 L 608 543 L 608 541 L 609 540 L 609 534 L 608 533 L 608 532 L 607 531 L 607 530 L 605 528 L 604 528 L 602 526 L 599 526 L 598 525 Z" fill="#FFFFFF"/>
<path d="M 321 525 L 320 526 L 317 526 L 316 527 L 315 527 L 311 531 L 311 532 L 310 533 L 310 541 L 311 542 L 311 543 L 316 548 L 318 548 L 319 549 L 325 549 L 326 548 L 327 548 L 328 547 L 329 547 L 333 543 L 333 542 L 334 541 L 334 534 L 333 533 L 333 531 L 329 527 L 328 527 L 327 526 L 324 526 L 323 525 Z" fill="#FFFFFF"/>
<path d="M 475 282 L 474 283 L 474 288 L 470 292 L 469 292 L 468 293 L 466 293 L 465 294 L 461 294 L 460 295 L 455 295 L 454 296 L 447 296 L 446 297 L 437 297 L 436 298 L 431 298 L 429 296 L 429 295 L 427 293 L 427 292 L 426 291 L 426 287 L 420 287 L 420 293 L 419 294 L 419 295 L 417 297 L 417 298 L 415 300 L 415 301 L 413 303 L 413 304 L 411 306 L 411 307 L 409 309 L 409 310 L 406 313 L 406 314 L 403 317 L 403 318 L 398 323 L 398 324 L 392 330 L 392 331 L 371 352 L 370 352 L 360 362 L 359 362 L 353 368 L 352 368 L 347 373 L 346 373 L 342 377 L 341 377 L 337 381 L 336 381 L 332 385 L 331 385 L 328 388 L 327 388 L 324 391 L 323 391 L 320 394 L 319 394 L 316 397 L 315 397 L 313 399 L 312 399 L 310 401 L 309 401 L 306 404 L 305 404 L 303 406 L 302 406 L 300 408 L 299 408 L 297 410 L 296 410 L 294 412 L 293 412 L 290 415 L 289 415 L 288 416 L 287 416 L 285 418 L 284 418 L 282 420 L 281 420 L 279 422 L 278 422 L 276 424 L 275 424 L 273 426 L 272 426 L 270 428 L 269 428 L 268 429 L 267 429 L 265 431 L 264 431 L 263 432 L 262 432 L 260 434 L 259 434 L 258 435 L 257 435 L 255 437 L 254 437 L 253 438 L 252 438 L 250 440 L 249 440 L 248 441 L 247 441 L 245 443 L 244 443 L 243 444 L 242 444 L 241 445 L 240 445 L 238 447 L 237 447 L 236 448 L 235 448 L 234 449 L 233 449 L 231 451 L 230 451 L 229 452 L 228 452 L 227 453 L 226 453 L 225 454 L 224 454 L 223 455 L 222 455 L 220 457 L 219 457 L 218 458 L 217 458 L 216 459 L 215 459 L 214 460 L 213 460 L 212 461 L 211 461 L 209 463 L 208 463 L 207 464 L 206 464 L 205 465 L 204 465 L 203 466 L 202 466 L 201 467 L 200 467 L 199 468 L 198 468 L 197 469 L 196 469 L 195 470 L 194 470 L 192 472 L 191 472 L 190 473 L 189 473 L 188 474 L 187 474 L 186 475 L 185 475 L 184 476 L 183 476 L 182 477 L 181 477 L 180 478 L 179 478 L 178 479 L 177 479 L 176 480 L 175 480 L 174 481 L 173 481 L 172 482 L 171 482 L 170 483 L 169 483 L 168 484 L 167 484 L 166 485 L 165 485 L 163 487 L 162 487 L 161 488 L 160 488 L 159 489 L 158 489 L 157 490 L 156 490 L 155 491 L 154 491 L 153 492 L 152 492 L 151 493 L 150 493 L 149 494 L 148 494 L 147 495 L 146 495 L 145 496 L 144 496 L 142 498 L 141 498 L 140 499 L 139 499 L 138 500 L 137 500 L 136 501 L 135 501 L 134 502 L 133 502 L 132 503 L 131 503 L 133 503 L 134 502 L 135 502 L 136 501 L 137 501 L 138 500 L 139 500 L 140 499 L 142 499 L 143 498 L 144 498 L 145 497 L 146 497 L 147 496 L 148 496 L 149 495 L 151 495 L 152 494 L 153 494 L 154 493 L 156 493 L 157 492 L 158 492 L 159 491 L 160 491 L 161 490 L 162 490 L 163 489 L 165 489 L 166 488 L 167 488 L 168 487 L 169 487 L 170 486 L 171 486 L 172 485 L 173 485 L 174 484 L 175 484 L 176 483 L 177 483 L 178 482 L 180 482 L 181 481 L 182 481 L 183 480 L 184 480 L 185 479 L 186 479 L 187 478 L 188 478 L 189 477 L 190 477 L 191 476 L 192 476 L 193 475 L 194 475 L 195 474 L 196 474 L 197 473 L 198 473 L 199 472 L 200 472 L 201 471 L 202 471 L 203 470 L 204 470 L 206 468 L 207 468 L 208 467 L 209 467 L 210 466 L 211 466 L 212 465 L 213 465 L 214 464 L 215 464 L 216 463 L 217 463 L 218 462 L 219 462 L 220 461 L 221 461 L 222 460 L 223 460 L 225 458 L 226 458 L 227 457 L 228 457 L 229 456 L 230 456 L 231 455 L 232 455 L 234 453 L 235 453 L 236 452 L 237 452 L 238 451 L 239 451 L 241 449 L 242 449 L 243 448 L 244 448 L 245 447 L 246 447 L 248 445 L 249 445 L 250 444 L 251 444 L 252 443 L 253 443 L 254 442 L 255 442 L 256 443 L 255 444 L 255 457 L 256 458 L 256 482 L 255 483 L 253 483 L 252 484 L 247 484 L 246 485 L 241 485 L 240 486 L 234 486 L 233 487 L 228 487 L 227 488 L 222 488 L 221 489 L 216 489 L 215 490 L 210 490 L 209 491 L 205 491 L 204 492 L 199 492 L 198 493 L 193 493 L 192 494 L 188 494 L 187 495 L 183 495 L 182 496 L 178 496 L 177 497 L 174 497 L 173 498 L 170 498 L 169 499 L 166 499 L 165 500 L 163 500 L 162 501 L 158 501 L 157 502 L 155 502 L 154 503 L 151 503 L 150 504 L 147 504 L 146 505 L 144 505 L 143 506 L 140 506 L 139 507 L 135 507 L 134 508 L 132 508 L 131 509 L 130 509 L 132 509 L 133 508 L 138 508 L 139 507 L 145 507 L 146 506 L 153 506 L 154 505 L 162 505 L 163 504 L 172 504 L 173 503 L 183 503 L 184 502 L 196 502 L 197 501 L 210 501 L 211 500 L 225 500 L 226 499 L 240 499 L 241 498 L 255 498 L 256 497 L 270 497 L 271 496 L 289 496 L 290 495 L 307 495 L 308 494 L 325 494 L 326 493 L 344 493 L 345 492 L 370 492 L 371 491 L 398 491 L 399 490 L 426 490 L 427 489 L 479 489 L 480 488 L 555 488 L 556 489 L 557 488 L 558 489 L 603 489 L 604 490 L 605 489 L 606 490 L 636 490 L 637 491 L 658 491 L 659 492 L 677 492 L 678 493 L 694 493 L 695 494 L 709 494 L 710 495 L 723 495 L 724 496 L 734 496 L 735 497 L 747 497 L 748 498 L 758 498 L 759 499 L 769 499 L 770 500 L 779 500 L 780 501 L 788 501 L 789 502 L 797 502 L 798 503 L 806 503 L 807 504 L 815 504 L 816 505 L 823 505 L 824 506 L 831 506 L 832 507 L 839 507 L 840 508 L 847 508 L 848 509 L 854 509 L 855 510 L 861 510 L 862 511 L 869 511 L 870 512 L 876 512 L 877 513 L 883 513 L 884 514 L 888 514 L 889 515 L 892 515 L 890 515 L 889 514 L 887 514 L 886 513 L 884 513 L 883 512 L 880 512 L 879 511 L 878 511 L 877 510 L 874 510 L 873 509 L 871 509 L 870 508 L 868 508 L 867 507 L 864 507 L 863 506 L 860 506 L 859 505 L 857 505 L 856 504 L 855 504 L 854 503 L 851 503 L 850 502 L 847 502 L 846 501 L 842 501 L 841 500 L 838 500 L 837 499 L 834 499 L 833 498 L 829 498 L 828 497 L 825 497 L 824 496 L 820 496 L 819 495 L 816 495 L 815 494 L 811 494 L 810 493 L 807 493 L 805 491 L 805 490 L 802 487 L 802 486 L 800 484 L 800 483 L 798 481 L 798 480 L 796 478 L 796 477 L 795 476 L 795 475 L 793 473 L 793 472 L 792 471 L 792 470 L 790 468 L 790 467 L 789 466 L 789 465 L 788 464 L 788 463 L 787 462 L 787 461 L 786 460 L 786 459 L 785 458 L 785 457 L 784 456 L 784 454 L 783 453 L 783 452 L 782 451 L 782 450 L 781 449 L 781 447 L 780 446 L 780 444 L 779 443 L 779 442 L 778 441 L 778 439 L 777 438 L 777 435 L 776 434 L 776 431 L 775 430 L 775 428 L 774 427 L 774 422 L 773 421 L 773 415 L 772 414 L 772 404 L 771 403 L 771 401 L 770 401 L 770 402 L 767 405 L 759 405 L 758 406 L 751 406 L 749 404 L 749 402 L 748 401 L 747 401 L 747 404 L 746 405 L 746 410 L 745 411 L 745 415 L 744 416 L 744 417 L 743 418 L 743 419 L 742 420 L 742 422 L 741 423 L 741 424 L 740 425 L 740 426 L 739 427 L 739 428 L 738 429 L 738 430 L 737 431 L 737 432 L 736 433 L 736 434 L 735 435 L 735 436 L 734 437 L 734 438 L 732 440 L 732 441 L 730 443 L 730 444 L 726 448 L 726 449 L 719 456 L 718 456 L 715 459 L 714 459 L 711 462 L 710 462 L 709 463 L 708 463 L 707 464 L 706 464 L 705 465 L 704 465 L 703 466 L 702 466 L 701 467 L 700 467 L 699 468 L 697 468 L 696 469 L 689 469 L 688 468 L 685 468 L 684 467 L 682 467 L 681 466 L 679 466 L 678 465 L 676 465 L 675 464 L 673 464 L 672 463 L 670 463 L 669 462 L 668 462 L 667 461 L 665 461 L 664 460 L 663 460 L 662 459 L 661 459 L 660 458 L 659 458 L 658 457 L 657 457 L 656 456 L 655 456 L 654 455 L 653 455 L 652 454 L 651 454 L 650 453 L 649 453 L 648 452 L 647 452 L 646 451 L 645 451 L 643 449 L 642 449 L 641 448 L 640 448 L 638 446 L 637 446 L 635 444 L 634 444 L 633 443 L 632 443 L 630 441 L 629 441 L 627 439 L 626 439 L 624 437 L 623 437 L 621 435 L 620 435 L 618 433 L 617 433 L 615 431 L 614 431 L 611 428 L 610 428 L 607 425 L 606 425 L 603 422 L 602 422 L 598 418 L 597 418 L 593 414 L 592 414 L 588 410 L 587 410 L 581 404 L 580 404 L 574 398 L 573 398 L 558 383 L 557 383 L 548 374 L 548 373 L 535 360 L 535 359 L 526 350 L 526 349 L 522 345 L 522 344 L 517 339 L 517 338 L 513 334 L 513 333 L 510 330 L 510 329 L 507 326 L 507 325 L 504 322 L 504 321 L 501 318 L 501 317 L 499 315 L 499 314 L 496 311 L 496 310 L 494 308 L 494 307 L 492 305 L 492 304 L 490 302 L 490 301 L 488 299 L 488 298 L 486 296 L 486 295 L 485 294 L 485 293 L 483 291 L 483 290 L 482 289 L 482 288 L 480 286 L 480 282 Z" fill="#FFFFFF"/>
</svg>